<?xml version="1.0" encoding="UTF-8"?><svg id="Layer_1" xmlns="http://www.w3.org/2000/svg" xmlns:xlink="http://www.w3.org/1999/xlink" viewBox="0 0 387.76 280.91"><defs><style>.cls-1,.cls-2,.cls-3,.cls-4,.cls-5,.cls-6,.cls-7,.cls-8,.cls-9{stroke-linecap:round;}.cls-1,.cls-2,.cls-4,.cls-5,.cls-6,.cls-7,.cls-8,.cls-9{stroke:#263238;stroke-linejoin:round;}.cls-1,.cls-2,.cls-4,.cls-6,.cls-9{stroke-width:.75px;}.cls-1,.cls-3,.cls-10,.cls-7{fill:none;}.cls-11,.cls-12,.cls-13,.cls-4,.cls-5,.cls-6{fill:#fff;}.cls-2,.cls-14{fill:#4338ca;}.cls-12{opacity:.8;}.cls-12,.cls-13,.cls-4{isolation:isolate;}.cls-15{clip-path:url(#clippath-2);}.cls-16{clip-path:url(#clippath-6);}.cls-13,.cls-4{opacity:.5;}.cls-3{stroke:#fff;stroke-miterlimit:10;}.cls-17{clip-path:url(#clippath-1);}.cls-18{clip-path:url(#clippath-4);}.cls-19{clip-path:url(#clippath);}.cls-20{clip-path:url(#clippath-3);}.cls-8,.cls-21,.cls-9{fill:#263238;}.cls-22{clip-path:url(#clippath-5);}</style><clipPath id="clippath"><rect class="cls-10" y="45.65" width="230" height="228"/></clipPath><clipPath id="clippath-1"><path class="cls-10" d="m168.4,71.55s25.61,30.42,31,36c5.39,5.58,5.59,9.63,3.85,12.13s-14.82,7.13-28.3,15.79-51.8,31-52.18,31.78-4.05-27-4.05-27l64.12-26.38-.19-1.93-20.8-38.51,6.55-1.88Z"/></clipPath><clipPath id="clippath-2"><path class="cls-10" d="m102.09,276.04c10.46-1.76,23.86-8.95,27.85-18-3-15.69-6.79-37.79-6.79-51.31,0-22.72,6-35.62,3.27-51s-8.47-25.41-14.63-29.46c0,0-9.43,2.5-19.06,11.55s-18.1,24.61-21.4,39.44-7.7,60.46-7.7,72.4-.86,26.76-.86,26.76h34.59c1.58.02,3.17-.11,4.73-.38Z"/></clipPath><clipPath id="clippath-3"><path class="cls-10" d="m124.11,101.58s.58,7.51,1.16,11.17-8.47,13.9-8.47,13.9l13.09,19.83,14.83-11.55s21-1.54,22.91-3.28,1.93-20.79,1.93-20.79l5-2.89s-4.62-20-5.77-24.46l-1.16-4.42s6.74-2.32,5.2-9-11.36-10-21.18-8.48-12.32,5.2-12.32,5.2c0,0-13.87-.19-21.76,6.36s-3.08,16.94-.58,20.6c2.13,2.82,4.51,5.43,7.12,7.81Z"/></clipPath><clipPath id="clippath-4"><path class="cls-10" d="m139.13,111.21s-1.15-12.13-7.12-12.51-5.78,8.28-4,14.25,6,7.89,9.43,4.81"/></clipPath><clipPath id="clippath-5"><path class="cls-10" d="m117.33,119.3l19.26,29.27-8.86,11.36c-3.99-7.7-8.42-15.16-13.28-22.34-6.55-9.24-7.32-10.78-7.32-10.78l10.2-7.51Z"/></clipPath><clipPath id="clippath-6"><path class="cls-10" d="m112.18,183.42s-5.59-23.3-7.9-28.5-15.4-10-21.76,1.35-.58,24.26,1.74,33.5,16.94,51,19.06,56.23,6,4,8.09,3.47,60.65-47.76,60.65-47.76l-4.62-10.39-45.44,23.33-9.82-31.23Z"/></clipPath></defs><g id="freepik--background-simple--inject-5"><path class="cls-14" d="m374.17,140.16c-3.39-27-11.87-53.07-22-71.76C327.7,23.49,259.53-6.55,208.17,1.22c-43.81,6.62-64.86,46.59-104.36,60.46-36.34,12.76-69.06,22.61-86.19,56.28-36.29,71.12,52.42,148.87,128.45,142.81,24-1.92,45.44-11.15,70.07-6.82,50,8.79,66.6,18.24,110.76.66,43.51-17.33,53.2-67.22,47.27-114.45Z"/><path class="cls-12" d="m374.17,140.16c-3.39-27-11.87-53.07-22-71.76C327.7,23.49,259.53-6.55,208.17,1.22c-43.81,6.62-64.86,46.59-104.36,60.46-36.34,12.76-69.06,22.61-86.19,56.28-36.29,71.12,52.42,148.87,128.45,142.81,24-1.92,45.44-11.15,70.07-6.82,50,8.79,66.6,18.24,110.76.66,43.51-17.33,53.2-67.22,47.27-114.45Z"/></g><g id="freepik--Device--inject-5"><polyline class="cls-6" points="199.24 276.08 156.59 180.58 259.94 180.58 387.39 264.65"/><polygon class="cls-9" points="188.66 272.32 156.59 186.95 156.59 180.58 201.96 280.53 188.66 272.32"/><polygon class="cls-6" points="215.68 184.53 259.64 236.06 206.28 248.49 175.96 190.89 215.68 184.53"/><polygon class="cls-9" points="206.28 248.49 206.28 250.01 258.73 239.4 259.64 236.06 206.28 248.49"/><polygon class="cls-21" points="214.02 203.07 216.27 206.39 221.99 204.84 219.61 201.6 214.02 203.07"/><polygon class="cls-21" points="235.67 223.38 232.95 219.7 226.45 221.45 228.99 225.21 235.67 223.38"/><polygon class="cls-21" points="209.35 196.15 211.02 198.63 216.4 197.26 214.71 194.96 209.35 196.15"/><polygon class="cls-21" points="219.71 211.48 222.79 216.04 229.08 214.45 225.68 209.84 219.71 211.48"/><polygon class="cls-21" points="236 213.62 230.61 214.99 233.31 218.65 238.8 217.17 236 213.62"/><polygon class="cls-21" points="223.34 216.84 225.91 220.66 232.37 218.91 229.66 215.23 223.34 216.84"/><polygon class="cls-21" points="203.26 197.5 204.92 200.18 210.08 198.86 208.39 196.36 203.26 197.5"/><polygon class="cls-21" points="216.8 207.18 219.18 210.69 225.1 209.05 222.57 205.62 216.8 207.18"/><polygon class="cls-21" points="211.56 199.42 213.48 202.27 219.02 200.81 216.98 198.04 211.56 199.42"/><polygon class="cls-21" points="199.92 205.85 198.24 202.82 192.11 204.38 193.82 207.46 199.92 205.85"/><polygon class="cls-21" points="191.11 213.18 195.32 212.05 193.37 208.53 189.23 209.62 191.11 213.18"/><polygon class="cls-21" points="201.44 194.56 202.75 196.68 207.84 195.55 206.47 193.53 201.44 194.56"/><polygon class="cls-21" points="197.78 201.99 196.16 199.07 189.93 200.44 191.65 203.55 197.78 201.99"/><polygon class="cls-21" points="195.39 195.79 196.63 198.03 201.81 196.89 200.48 194.75 195.39 195.79"/><polygon class="cls-21" points="186.68 204.82 190.74 203.78 189 200.65 184.95 201.54 186.68 204.82"/><polygon class="cls-21" points="188.17 197.27 189.47 199.61 195.7 198.24 194.45 195.98 188.17 197.27"/><polygon class="cls-21" points="207.74 204.73 209.84 208.12 215.34 206.64 213.09 203.32 207.74 204.73"/><polygon class="cls-21" points="221.86 216.28 218.79 211.74 213.06 213.32 215.84 217.81 221.86 216.28"/><polygon class="cls-21" points="197.09 198.86 198.69 201.76 203.99 200.41 202.32 197.71 197.09 198.86"/><polygon class="cls-21" points="198.29 217.39 193.97 218.58 196.21 222.81 200.66 221.68 198.29 217.39"/><polygon class="cls-21" points="210.34 208.93 212.56 212.51 218.25 210.95 215.88 207.43 210.34 208.93"/><polygon class="cls-21" points="206.32 204.17 204.49 201.22 199.15 202.58 200.83 205.62 206.32 204.17"/><polygon class="cls-21" points="216.35 235.52 210.24 237.08 212.42 241.01 218.55 239.5 216.35 235.52"/><polygon class="cls-21" points="206.89 192.52 212.12 191.45 209.31 187.63 204.16 188.48 206.89 192.52"/><polygon class="cls-21" points="193.99 195.15 191.46 190.58 185.05 191.64 187.71 196.44 193.99 195.15"/><polygon class="cls-21" points="202.31 210.16 200.38 206.67 194.28 208.28 196.23 211.8 202.31 210.16"/><polygon class="cls-21" points="217.88 222.83 215.42 218.86 209.06 220.48 211.34 224.6 217.88 222.83"/><polygon class="cls-21" points="214.92 218.05 212.14 213.57 206.15 215.22 208.6 219.65 214.92 218.05"/><polygon class="cls-21" points="224.98 220.91 222.4 217.08 216.34 218.62 218.8 222.58 224.98 220.91"/><polygon class="cls-21" points="208.92 208.37 206.82 204.97 201.28 206.44 203.21 209.91 208.92 208.37"/><polygon class="cls-21" points="205.42 200.99 207.24 203.92 212.55 202.52 210.62 199.66 205.42 200.99"/><polygon class="cls-21" points="211.64 212.77 209.42 209.18 203.66 210.73 205.7 214.41 211.64 212.77"/><polygon class="cls-21" points="228.07 225.47 225.52 221.71 219.3 223.39 221.67 227.22 228.07 225.47"/><polygon class="cls-21" points="223.96 232.64 221.25 228.27 214.41 230.15 216.81 234.46 223.96 232.64"/><polygon class="cls-21" points="203.46 226.73 201.12 222.5 196.65 223.64 198.93 227.96 203.46 226.73"/><polygon class="cls-21" points="195.78 212.87 191.55 214.01 193.54 217.76 197.83 216.58 195.78 212.87"/><polygon class="cls-21" points="215.89 234.7 213.51 230.39 207.45 232.05 209.78 236.25 215.89 234.7"/><polygon class="cls-21" points="204.79 214.65 202.76 210.98 196.68 212.62 198.74 216.33 204.79 214.65"/><polygon class="cls-21" points="207.44 193.33 208.8 195.34 214.12 194.16 212.71 192.25 207.44 193.33"/><polygon class="cls-21" points="184.51 200.71 188.54 199.82 187.24 197.46 183.22 198.28 184.51 200.71"/><polygon class="cls-21" points="200.92 193.73 205.92 192.71 203.17 188.64 198.27 189.45 200.92 193.73"/><polygon class="cls-21" points="194.93 194.96 199.98 193.93 197.3 189.61 192.41 190.42 194.93 194.96"/><polygon class="cls-21" points="192.92 207.71 191.2 204.61 187.12 205.65 188.79 208.79 192.92 207.71"/><polygon class="cls-21" points="213.1 191.25 217.62 190.32 214.78 186.73 210.31 187.46 213.1 191.25"/><polygon class="cls-21" points="186.77 196.63 184.09 191.79 180.13 192.45 182.78 197.44 186.77 196.63"/><polygon class="cls-21" points="209.33 237.31 204.53 238.53 206.61 242.45 211.51 241.24 209.33 237.31"/><polygon class="cls-21" points="232.14 231.49 225.38 233.21 227.85 237.2 234.83 235.47 232.14 231.49"/><polygon class="cls-21" points="224.46 233.45 217.26 235.28 219.47 239.27 226.92 237.43 224.46 233.45"/><polygon class="cls-21" points="240.14 229.45 233.08 231.25 235.77 235.24 243.08 233.43 240.14 229.45"/><polygon class="cls-21" points="247.09 227.68 241.09 229.21 244.04 233.2 250.24 231.66 247.09 227.68"/><polygon class="cls-21" points="206.55 232.3 201.9 233.57 204.09 237.71 208.87 236.49 206.55 232.3"/><polygon class="cls-21" points="220.75 227.47 218.38 223.64 211.8 225.42 213.96 229.33 220.75 227.47"/><polygon class="cls-21" points="231.6 230.69 228.6 226.26 222.17 228.02 224.88 232.4 231.6 230.69"/><polygon class="cls-21" points="213.06 229.57 210.89 225.66 204.82 227.31 207 231.23 213.06 229.57"/><polygon class="cls-21" points="201.47 232.75 206.1 231.48 203.92 227.55 199.37 228.78 201.47 232.75"/><polygon class="cls-21" points="207.69 219.89 205.25 215.47 199.19 217.14 201.57 221.44 207.69 219.89"/><polygon class="cls-21" points="239.56 228.66 236.25 224.17 229.53 226.01 232.54 230.45 239.56 228.66"/><polygon class="cls-21" points="210.44 224.84 208.15 220.71 202.03 222.27 204.37 226.49 210.44 224.84"/><polygon class="cls-21" points="226.62 209.58 230.03 214.2 235.38 212.84 231.7 208.18 226.62 209.58"/><polygon class="cls-21" points="219.97 200.56 224.71 199.31 222.58 196.62 217.94 197.8 219.97 200.56"/><polygon class="cls-21" points="215.69 194.75 217.35 197.01 221.97 195.84 220.3 193.73 215.69 194.75"/><polygon class="cls-21" points="246.47 226.9 242.89 222.35 237.19 223.91 240.51 228.42 246.47 226.9"/><polygon class="cls-21" points="220.55 201.35 222.94 204.58 227.82 203.26 225.32 200.09 220.55 201.35"/><polygon class="cls-21" points="233.89 219.44 236.61 223.13 242.28 221.58 239.41 217.95 233.89 219.44"/><polygon class="cls-21" points="215.09 193.95 219.68 192.94 218.25 191.12 213.7 192.05 215.09 193.95"/><polygon class="cls-21" points="226.04 208.8 231.09 207.4 228.44 204.04 223.52 205.37 226.04 208.8"/><path class="cls-6" d="m266.61,190.29v8.18c-.83.8-1.75,1.51-2.73,2.12-1.51.91-13.94,3-13.94,3l15.76,17.29s14.45-1.58,18.5-2.73c4.24-1.22,3.33-16.68,3.33-16.68l-20.92-11.18Z"/><path class="cls-9" d="m266.61,190.29v8.18s-.22.22-.58.54l18.43,19.06c3.94-1.77,3.07-16.57,3.07-16.57l-20.92-11.21Z"/><polygon class="cls-6" points="238.72 85.69 238.72 172.4 304.81 224.54 304.81 90.54 238.72 85.69"/><polygon class="cls-2" points="243.27 90.24 243.27 163.3 298.75 197.56 298.75 95.09 243.27 90.24"/><rect class="cls-9" x="304.81" y="90.54" width="6.67" height="134.03"/><polygon class="cls-6" points="246.91 94.79 247.21 159.97 293.59 186.34 293.59 105.63 261.76 100.81 259.64 96.3 246.91 94.79"/><polygon class="cls-2" points="249.94 102.67 249.94 158.15 290.87 179.98 290.87 109.95 249.94 102.67"/><ellipse class="cls-21" cx="269.04" cy="142.42" rx="11.03" ry="15.2" transform="translate(-31.34 93.04) rotate(-18.56)"/><path class="cls-11" d="m270.25,143.32l3.89-4.31c.54-.79.51-1.83-.07-2.59-.58-.83-1.49-1-2-.41l-3.74,4.15-3.75-6c-.54-.87-1.45-1.14-2-.6-.6.74-.63,1.78-.08,2.55l3.89,6.25-3.96,4.29c-.54.79-.51,1.84.08,2.59.23.36.59.62,1,.73.37.09.75-.03,1-.32l3.75-4.15,3.74,6c.23.41.61.71,1.06.84.35.11.74.02,1-.24.59-.74.62-1.78.07-2.55l-3.88-6.23Z"/><line class="cls-1" x1="257.21" y1="121.47" x2="280.13" y2="128.2"/><line class="cls-1" x1="256.3" y1="115.1" x2="286.01" y2="123.39"/><path class="cls-6" d="m276.78,257.96s-14.49,1.34-19.85,5.63-1.34,6.44,3.75,7.78,27.9-.81,30.85-3.76,0-10.19-14.75-9.65Z"/><path class="cls-9" d="m291.53,267.65c.57-.57.92-1.32,1-2.12-6.49-.32-15,1.56-22.73,4-2.61.83-5.26,1.53-7.94,2.09,6.74.81,26.91-1.25,29.67-3.97Z"/><line class="cls-7" x1="225.41" y1="98.81" x2="236" y2="104.32"/><line class="cls-7" x1="219.33" y1="95.65" x2="222.48" y2="97.29"/><line class="cls-7" x1="227.74" y1="126.57" x2="231.33" y2="126.98"/><line class="cls-7" x1="214" y1="124.98" x2="223.68" y2="126.1"/><line class="cls-7" x1="230" y1="152.32" x2="218" y2="155.65"/></g><g id="freepik--Clock--inject-5"><path class="cls-21" d="m214.51,5.65c-15.85,0-28.7,12.85-28.7,28.7,0,15.85,12.85,28.7,28.7,28.7,15.85,0,28.7-12.85,28.7-28.7s-12.85-28.7-28.7-28.7h0Zm0,51.76c-12.74,0-23.06-10.33-23.05-23.07s10.33-23.06,23.07-23.05c12.73,0,23.05,10.33,23.05,23.06.02,12.73-10.28,23.07-23.01,23.09-.02,0-.04,0-.06,0v-.03Z"/><path class="cls-21" d="m216.56,34.38c.03,1.13-.87,2.07-2,2.1-1.13.03-2.07-.87-2.1-2-.03-1.13.87-2.07,2-2.1.02,0,.03,0,.05,0,1.11,0,2.02.89,2.05,2Z"/><polyline class="cls-7" points="207.64 44.79 214.51 34.38 226.12 43.99"/></g><g id="freepik--file-cabinet--inject-5"><polyline class="cls-14" points="62.21 56.38 58.76 46.95 60.6 49.02 60.6 45.8 64.51 51.78 61.06 30.39 65.66 42.12 66.12 31.77 66.81 35.22 67.73 23.49 69.34 41.43 71.64 35.22 71.18 43.27 77.39 24.87 74.4 47.87 78.77 44.65 76.24 48.79 79.46 46.49 75.79 57.07 62.44 57.3"/><polygon class="cls-8" points="76.97 79.61 62.59 79.61 58.71 54.69 80.84 54.69 76.97 79.61"/><rect class="cls-5" x="43.75" y="79.44" width="72.59" height="193.11"/><rect class="cls-7" x="47.97" y="85.78" width="63.43" height="46.51"/><rect class="cls-21" x="67" y="104.81" width="25.37" height="8.46"/><rect class="cls-7" x="47.97" y="140.05" width="63.43" height="46.51"/><rect class="cls-21" x="67" y="159.08" width="25.37" height="8.46"/><rect class="cls-7" x="47.97" y="194.31" width="63.43" height="46.51"/><rect class="cls-21" x="67" y="213.34" width="25.37" height="8.46"/></g><g id="freepik--Character--inject-5"><g class="cls-19"><path class="cls-9" d="m124.12,261.53s36.38-16.07,55.94-17.28l14.27,31.53h-107.78l37.57-14.25Z"/><path class="cls-11" d="m168.4,71.55s25.61,30.42,31,36c5.39,5.58,5.59,9.63,3.85,12.13s-14.82,7.13-28.3,15.79-51.8,31-52.18,31.78-4.05-27-4.05-27l64.12-26.38-.19-1.93-20.8-38.51,6.55-1.88Z"/><g class="cls-17"><path class="cls-14" d="m193.05,116.45l-29.72-43.4-1.43.42,20.8,38.51.19,1.93-64.12,26.38s.07.48.17,1.29l4.18,9.59,69.93-34.72Z"/><path class="cls-13" d="m193.05,116.45l-29.72-43.4-1.43.42,20.8,38.51.19,1.93-64.12,26.38s.07.48.17,1.29l4.18,9.59,69.93-34.72Z"/></g><path class="cls-1" d="m168.4,71.55s25.61,30.42,31,36c5.39,5.58,5.59,9.63,3.85,12.13s-14.82,7.13-28.3,15.79-51.8,31-52.18,31.78-4.05-27-4.05-27l64.12-26.38-.19-1.93-20.8-38.51,6.55-1.88Z"/><path class="cls-6" d="m147.99,58.26s-3.08-2.7-4.62,0-1.73,7.12-.77,7.51,4.81-.19,5.39-1.35,0-6.16,0-6.16Z"/><path class="cls-6" d="m153.38,56.91s-3.27-3.46-5.39-2.12-1.54,8.67-.77,9.25,5.39-1,6-1.93.16-5.2.16-5.2Z"/><path class="cls-6" d="m160.7,57.1s-2.89-4-5.58-4-4.63,9.63-3.66,10.4,7.31-.19,7.7-.77c.62-1.85,1.13-3.73,1.54-5.63Z"/><path class="cls-6" d="m166.33,63.65c0-1.15-.57-11.17-4-10.59s-7.12,8.67-6.93,10,10.93.59,10.93.59Z"/><path class="cls-6" d="m182.84,113.91s9.82,3.66,13.48,3.46"/><path class="cls-11" d="m102.09,276.04c10.46-1.76,23.86-8.95,27.85-18-3-15.69-6.79-37.79-6.79-51.31,0-22.72,6-35.62,3.27-51s-8.47-25.41-14.63-29.46c0,0-9.43,2.5-19.06,11.55s-18.1,24.61-21.4,39.44-7.7,60.46-7.7,72.4-.86,26.76-.86,26.76h34.59c1.58.02,3.17-.11,4.73-.38Z"/><g class="cls-15"><path class="cls-14" d="m129.94,258.03c-5.86,5-32.25,14.71-36.1,15.57s-1.71-7.28,4.28-15.41-7.28,3-9.42,3.85.86-15.84.86-24,7.71-77.48,7.71-77.48l14.55-26.55,5-3c-1.4-1.86-3.09-3.47-5-4.79,0,0-9.43,2.5-19.06,11.55s-18.13,24.66-21.43,39.49-7.7,60.46-7.7,72.4-.86,26.76-.86,26.76h34.59c1.58,0,3.16-.14,4.71-.42,10.48-1.72,23.88-8.91,27.87-17.97Z"/><path class="cls-13" d="m129.94,258.03c-5.86,5-32.25,14.71-36.1,15.57s-1.71-7.28,4.28-15.41-7.28,3-9.42,3.85.86-15.84.86-24,7.71-77.48,7.71-77.48l14.55-26.55,5-3c-1.4-1.86-3.09-3.47-5-4.79,0,0-9.43,2.5-19.06,11.55s-18.13,24.66-21.43,39.49-7.7,60.46-7.7,72.4-.86,26.76-.86,26.76h34.59c1.58,0,3.16-.14,4.71-.42,10.48-1.72,23.88-8.91,27.87-17.97Z"/></g><path class="cls-1" d="m102.09,276.04c10.46-1.76,23.86-8.95,27.85-18-3-15.69-6.79-37.79-6.79-51.31,0-22.72,6-35.62,3.27-51s-8.47-25.41-14.63-29.46c0,0-9.43,2.5-19.06,11.55s-18.1,24.61-21.4,39.44-7.7,60.46-7.7,72.4-.86,26.76-.86,26.76h34.59c1.58.02,3.17-.11,4.73-.38Z"/><path class="cls-9" d="m111.23,129.81l16.54,30.12.89,16.52s4.61-11.78,2.56-19.47-19.99-27.17-19.99-27.17Z"/><polygon class="cls-9" points="128.65 176.46 124.04 246.17 129.17 260.52 132.76 231.81 129.68 174.4 128.65 176.46"/><path class="cls-11" d="m124.11,101.58s.58,7.51,1.16,11.17-8.47,13.9-8.47,13.9l13.09,19.83,14.83-11.55s21-1.54,22.91-3.28,1.93-20.79,1.93-20.79l5-2.89s-4.62-20-5.77-24.46l-1.16-4.42s6.74-2.32,5.2-9-11.36-10-21.18-8.48-12.32,5.2-12.32,5.2c0,0-13.87-.19-21.76,6.36s-3.08,16.94-.58,20.6c2.13,2.82,4.51,5.43,7.12,7.81Z"/><g class="cls-20"><path class="cls-14" d="m147.33,128.48c-3.85-4.71,0-22.69,3-31.68s-4.28-12.84-4.28-12.84l21.86-3.77-.3-1.13c1.48-.58,2.79-1.51,3.83-2.71l1.18-6.95c-2-6.32-11.47-9.36-21-7.87-9.82,1.54-12.32,5.2-12.32,5.2,0,0-13.87-.19-21.76,6.36s-3.08,16.94-.58,20.6c2.12,2.85,4.51,5.49,7.12,7.89,0,0,.58,7.51,1.16,11.17s-8.44,13.9-8.44,13.9l13.09,19.83,14.83-11.55s16-1.18,21.36-2.63l1.55-.65s-16.43,1.54-20.3-3.17Z"/><path class="cls-13" d="m147.33,128.48c-3.85-4.71,0-22.69,3-31.68s-4.28-12.84-4.28-12.84l21.86-3.77-.3-1.13c1.48-.58,2.79-1.51,3.83-2.71l1.18-6.95c-2-6.32-11.47-9.36-21-7.87-9.82,1.54-12.32,5.2-12.32,5.2,0,0-13.87-.19-21.76,6.36s-3.08,16.94-.58,20.6c2.12,2.85,4.51,5.49,7.12,7.89,0,0,.58,7.51,1.16,11.17s-8.44,13.9-8.44,13.9l13.09,19.83,14.83-11.55s16-1.18,21.36-2.63l1.55-.65s-16.43,1.54-20.3-3.17Z"/><path class="cls-21" d="m158.58,92.73v-.77c0-1.49.25-4.71,2.74-5.59,3.27-1.15,6,1.93,6,1.93l.19,3.08c-.96-1.2-2.49-1.79-4-1.54-1.91.4-3.64,1.42-4.93,2.89Z"/><path class="cls-21" d="m164.17,98.89c0,1.59-.44,2.89-1,2.89s-1-1.3-1-2.89.43-2.89,1-2.89,1,1.29,1,2.89Z"/><path class="cls-21" d="m158.1,119.06c-1.07,1.11-2.5,1.47-3.19.81s-.38-2.11.69-3.22,2.49-1.47,3.18-.81.39,2.11-.68,3.22Z"/></g><path class="cls-1" d="m124.11,101.58s.58,7.51,1.16,11.17-8.47,13.9-8.47,13.9l13.09,19.83,14.83-11.55s21-1.54,22.91-3.28,1.93-20.79,1.93-20.79l5-2.89s-4.62-20-5.77-24.46l-1.16-4.42s6.74-2.32,5.2-9-11.36-10-21.18-8.48-12.32,5.2-12.32,5.2c0,0-13.87-.19-21.76,6.36s-3.08,16.94-.58,20.6c2.13,2.82,4.51,5.43,7.12,7.81Z"/><path class="cls-9" d="m142.6,82.71c3.47-2.31,25-3.65,25-3.65,0,0,6.74-2.32,5.2-9s-11.36-10-21.18-8.48-12.32,5.2-12.32,5.2c0,0-13.87-.19-21.76,6.36s-3.08,16.94-.58,20.6c2.12,2.85,4.51,5.49,7.12,7.89,0,0,.32,4.12.72,7.75l6,1.69,6.55-3.47,6.55-1.54s-4.82-3.66-2.12-7.12,7.7-4.62,7.89-7.32-10.54-6.6-7.07-8.91Z"/><path class="cls-3" d="m163.62,71.52s-2.26-4.14,1.88-3.39,4.14,7.91.75,9.41-21.83-1.88-32,1.13-17.31,11.29-17.31,11.29"/><path class="cls-3" d="m122.59,96.36s7.91-6.77,14.3-7.9,9.79-1.13,2.64,3-2.26,3.38,2.26,1.88"/><path class="cls-14" d="m139.13,111.21s-1.15-12.13-7.12-12.51-5.78,8.28-4,14.25,6,7.89,9.43,4.81"/><g class="cls-18"><path class="cls-4" d="m139.13,111.21s-1.15-12.13-7.12-12.51-5.78,8.28-4,14.25,6,7.89,9.43,4.81"/></g><path class="cls-1" d="m139.13,111.21s-1.15-12.13-7.12-12.51-5.78,8.28-4,14.25,6,7.89,9.43,4.81"/><path class="cls-11" d="m117.33,119.3l19.26,29.27-8.86,11.36c-3.99-7.7-8.42-15.16-13.28-22.34-6.55-9.24-7.32-10.78-7.32-10.78l10.2-7.51Z"/><g class="cls-22"><path class="cls-14" d="m117.33,119.3l-10.2,7.51s.57,1.13,4.77,7.16l10.78-6.54-5.35-8.13Z"/><path class="cls-13" d="m117.33,119.3l-10.2,7.51s.57,1.13,4.77,7.16l10.78-6.54-5.35-8.13Z"/></g><path class="cls-1" d="m117.33,119.3l19.26,29.27-8.86,11.36c-3.99-7.7-8.42-15.16-13.28-22.34-6.55-9.24-7.32-10.78-7.32-10.78l10.2-7.51Z"/><path class="cls-6" d="m166.86,192.09s3.08-6.36,3.66-10.4.77-6.36,3.08-8.28,9.82-9.63,11-12.52,1.92-.19,2.5,2.12.38,4.43-1.54,5.78c-1.35,1-2.58,2.17-3.66,3.46l1.73,1.35s24.07-9.05,26.58-10,4.81-.2,5,1.73-.57,2.12-1.73,2.7-13.86,5-15.6,5.77l-1.73.77,1.35,1.35s6.93-.19,10.4-.38,8.66-.77,9.43.38c.71,1.07.46,2.51-.58,3.27-.82.79-1.95,1.15-3.08,1-1.73,0-16.56,1.15-16.56,1.15l.39,2.12s15.79,2.5,16.36,3.27.58,1.16,0,2.31-1,1.16-2.5,1.16-14-1.93-14-1.93c0,0,6.16,3.47,6.93,4.05s3.46,1,2.69,2.31-1.15,1.73-2.31,1.54-9.43-3.85-9.43-3.85c0,0-8.28,1.15-11,1.35-2,.09-4.01.03-6-.2l-7.7,5-3.68-6.38Z"/><path class="cls-11" d="m112.18,183.42s-5.59-23.3-7.9-28.5-15.4-10-21.76,1.35-.58,24.26,1.74,33.5,16.94,51,19.06,56.23,6,4,8.09,3.47,60.65-47.76,60.65-47.76l-4.62-10.39-45.44,23.33-9.82-31.23Z"/><g class="cls-16"><path class="cls-14" d="m110.54,234.65c1.48-4.51,3.2-8.94,5.13-13.27,2.14-4.28-10.27,9.85-12.84,2.14s-18.83-46.23-15.84-59.07c1.3-5.97,4.79-11.23,9.78-14.74-4.77-1.13-10.61.07-14.25,6.57-6.35,11.36-.58,24.26,1.74,33.5s16.94,51,19.06,56.23,6,4,8.09,3.47c1.54-.42,33-25.55,50-39.18l-50.87,24.35Z"/><path class="cls-13" d="m110.54,234.65c1.48-4.51,3.2-8.94,5.13-13.27,2.14-4.28-10.27,9.85-12.84,2.14s-18.83-46.23-15.84-59.07c1.3-5.97,4.79-11.23,9.78-14.74-4.77-1.13-10.61.07-14.25,6.57-6.35,11.36-.58,24.26,1.74,33.5s16.94,51,19.06,56.23,6,4,8.09,3.47c1.54-.42,33-25.55,50-39.18l-50.87,24.35Z"/></g><path class="cls-1" d="m112.18,183.42s-5.59-23.3-7.9-28.5-15.4-10-21.76,1.35-.58,24.26,1.74,33.5,16.94,51,19.06,56.23,6,4,8.09,3.47,60.65-47.76,60.65-47.76l-4.62-10.39-45.44,23.33-9.82-31.23Z"/><line class="cls-1" x1="160.7" y1="195.17" x2="165.9" y2="205.76"/><path class="cls-6" d="m38.55,142.04l-26.6,18.45s13.11,13.86,11.76,50.22c-1,27.77,2.67,59.3,8,65.71h28.32s-9.79-54-9.09-84.94c.55-23.51-6.51-39.83-12.39-49.44Z"/><path class="cls-9" d="m41.75,142.04l-26.6,18.45s13.11,13.86,11.75,50.22c-1,27.77,2.67,59.3,8,65.71h28.33s-9.78-54-9.08-84.94c.53-23.51-6.53-39.83-12.4-49.44Z"/><polygon class="cls-6" points="38.55 142.04 41.75 142.04 15.15 160.49 11.96 160.49 38.55 142.04"/></g></g></svg>