<?xml version="1.0" encoding="UTF-8"?><svg id="Layer_1" xmlns="http://www.w3.org/2000/svg" viewBox="0 0 468 468"><defs><style>.cls-1{fill:none;stroke:#7f56d9;stroke-linecap:round;stroke-linejoin:round;stroke-width:36px;}</style></defs><path class="cls-1" d="m402,18h-72c-26.51,0-48,21.49-48,48v72c0,26.51,21.49,48,48,48h72c26.51,0,48-21.49,48-48v-72c0-26.51-21.49-48-48-48Z"/><path class="cls-1" d="m138,18h-72c-26.51,0-48,21.49-48,48v72c0,26.51,21.49,48,48,48h72c26.51,0,48-21.49,48-48v-72c0-26.51-21.49-48-48-48Z"/><path class="cls-1" d="m402,282h-72c-26.51,0-48,21.49-48,48v72c0,26.51,21.49,48,48,48h72c26.51,0,48-21.49,48-48v-72c0-26.51-21.49-48-48-48h0Z"/><path class="cls-1" d="m138,282h-72c-26.51,0-48,21.49-48,48v72c0,26.51,21.49,48,48,48h72c26.51,0,48-21.49,48-48v-72c0-26.51-21.49-48-48-48h0Z"/></svg>