<?xml version="1.0" encoding="utf-8"?>
<!-- Generator: Adobe Illustrator 28.0.0, SVG Export Plug-In . SVG Version: 6.00 Build 0)  -->
<svg version="1.1" id="Layer_1" xmlns="http://www.w3.org/2000/svg" xmlns:xlink="http://www.w3.org/1999/xlink" x="0px" y="0px"
	 viewBox="0 0 800 800" style="enable-background:new 0 0 800 800;" xml:space="preserve">
<style type="text/css">
	.st0{opacity:0.2;fill-rule:evenodd;clip-rule:evenodd;fill:#B677ED;enable-background:new    ;}
	.st1{fill-rule:evenodd;clip-rule:evenodd;fill:#B677ED;}
</style>
<path class="st0" d="M400,75C220.5,75,75,220.5,75,400s145.5,325,325,325s325-145.5,325-325S579.5,75,400,75z M0,400
	C0,179.1,179.1,0,400,0s400,179.1,400,400S620.9,800,400,800S0,620.9,0,400z"/>
<path class="st1" d="M362.5,37.5C362.5,16.8,379.3,0,400,0c220.9,0,400,179.1,400,400c0,20.7-16.8,37.5-37.5,37.5S725,420.7,725,400
	c0-179.5-145.5-325-325-325C379.3,75,362.5,58.2,362.5,37.5z"/>
</svg>
