<svg width="50" height="50" viewBox="0 0 50 50" fill="none" xmlns="http://www.w3.org/2000/svg">
<g clip-path="url(#clip0_29_320)">
<path fill-rule="evenodd" clip-rule="evenodd" d="M25 0C38.8072 0 50 11.1928 50 25C50 38.8072 38.8072 50 25 50C11.1928 50 0 38.8072 0 25C0 11.1928 11.1928 0 25 0Z" fill="#5A3E92"/>
<path fill-rule="evenodd" clip-rule="evenodd" d="M19.8768 19H20.8843L23.0429 21.4193C22.5439 21.4823 22.061 21.7071 21.6779 22.0938C20.7624 23.0178 20.7624 24.5159 21.6779 25.4399C22.5344 26.3043 24.6809 26.7748 24.6809 24.8709C24.6809 24.5398 25.0476 23.6845 25.5 23.6845C25.9524 23.6845 26.3191 24.5397 26.3191 24.8709C26.3191 26.7748 28.4657 26.3043 29.3221 25.4399C30.2377 24.5159 30.2376 23.0178 29.3221 22.0938C28.9389 21.7071 28.456 21.4823 27.957 21.4193L30.1156 19H31.1231L34 21.9036V29.0964L31.1231 32H27.3993C27.1751 30.9355 27.8443 31.0566 27.8443 29.8787C27.8443 28.5719 26.7948 27.5127 25.5 27.5127C24.2052 27.5127 23.1557 28.572 23.1557 29.8787C23.1557 31.0566 23.8249 30.9355 23.6007 32H19.877L17 29.0964V21.9036L19.877 19H19.8768Z" fill="#FEFEFE"/>
</g>
<defs>
<clipPath id="clip0_29_320">
<rect width="50" height="50" fill="white"/>
</clipPath>
</defs>
</svg>
