<svg width="159" height="17" viewBox="0 0 159 17" fill="none" xmlns="http://www.w3.org/2000/svg">
<path d="M17.1559 0.388745V12.0521C17.1559 13.5134 16.7184 14.6984 15.84 15.6179C14.9617 16.5364 13.8277 16.9978 12.4336 16.9978C10.7573 16.9978 9.4767 16.2324 8.59063 14.6995C8.04401 15.5254 7.4566 16.1157 6.83283 16.4681C6.20465 16.8205 5.43541 16.9978 4.51628 16.9978C3.05824 16.9978 1.94075 16.5364 1.16269 15.6179C0.389033 14.6995 0 13.3758 0 11.6523V0.389847H4.81164V10.9277C4.81164 11.4541 4.85242 11.7977 4.93727 11.964C5.02213 12.1303 5.19295 12.2151 5.45194 12.2151C5.93354 12.2151 6.17269 11.8142 6.17269 11.0092V0.389847H10.9843V10.9277C10.9843 11.4376 11.0284 11.7779 11.1144 11.9519C11.2036 12.1259 11.3734 12.2151 11.629 12.2151C12.1073 12.2151 12.3454 11.7856 12.3454 10.9277V0.389847H17.157L17.1559 0.388745ZM28.6979 6.70221V10.2956H25.5669C25.1415 10.2956 24.8384 10.3606 24.6643 10.4861C24.4858 10.616 24.3965 10.8297 24.3965 11.1336C24.3965 11.4783 24.4858 11.7008 24.6676 11.8098C24.8495 11.9188 25.2187 11.9717 25.7774 11.9717H29.0131V16.5848H25.2341C23.452 16.5848 22.0877 16.1598 21.1432 15.314C20.1998 14.4638 19.7292 13.2381 19.7292 11.6347V5.28931C19.7292 3.73544 20.1745 2.52958 21.0661 1.6717C21.9609 0.818235 23.2129 0.388745 24.8329 0.388745H29.012V5.05033H25.9416C25.1195 5.05033 24.7106 5.32124 24.7106 5.85975C24.7106 6.17581 24.8076 6.39386 25.0027 6.515C25.201 6.64054 25.5493 6.70111 26.0474 6.70111H28.6957L28.6979 6.70221ZM31.7837 0.388745H37.6566C41.1436 0.388745 42.8892 1.76091 42.8892 4.50853C42.8892 5.86857 42.2941 6.99734 41.0995 7.89927C42.8286 8.65252 43.6916 9.99164 43.6916 11.9221C43.6916 13.3989 43.1813 14.5806 42.1608 15.4594C41.6671 15.8756 41.1325 16.1675 40.5606 16.3338C39.9941 16.5 39.2282 16.5848 38.2639 16.5848H37.348V12.4331H38.1658C38.6518 12.4331 38.9923 12.3725 39.1907 12.247C39.3891 12.1259 39.4861 11.9067 39.4861 11.5951C39.4861 11.0687 39.0805 10.8055 38.2749 10.8055H37.3469V6.49188C38.2385 6.49188 38.6838 6.18462 38.6838 5.57784C38.6838 5.0151 38.2826 4.73648 37.477 4.73648H36.5942V16.5859H31.7826V0.389847L31.7837 0.388745ZM62.6769 8.67235L67.7233 8.8023C67.3916 11.4167 66.4835 13.4364 65.01 14.8603C63.5321 16.2853 61.6079 16.9967 59.2351 16.9967C56.8216 16.9967 54.8004 16.1873 53.1727 14.5728C51.5493 12.954 50.7349 10.9464 50.7349 8.55121C50.7349 6.13947 51.5647 4.11207 53.2211 2.46901C54.882 0.821537 56.923 0 59.3531 0C61.7424 0 63.7393 0.805021 65.3351 2.41615C66.4449 3.52951 67.2307 5.08338 67.688 7.07003L62.5237 7.41802C61.944 5.66153 60.8475 4.78384 59.2274 4.78384C58.1948 4.78384 57.344 5.13953 56.6717 5.84874C56.0039 6.56125 55.6677 7.46317 55.6677 8.56002C55.6677 9.61612 55.9962 10.4905 56.6563 11.1788C57.3164 11.8704 58.1463 12.2151 59.1547 12.2151C60.1796 12.2151 60.9929 11.9111 61.6013 11.2999C62.2085 10.6887 62.5689 9.81434 62.6791 8.67345L62.6769 8.67235ZM77.6783 0C79.9706 0 81.9389 0.833642 83.5788 2.50094C85.2186 4.17263 86.0408 6.167 86.0408 8.49064C86.0408 10.8583 85.2142 12.8659 83.5622 14.5167C81.9102 16.1719 79.9012 16.9978 77.5361 16.9978C75.1876 16.9978 73.183 16.1686 71.5221 14.509C69.8613 12.8461 69.0314 10.8429 69.0314 8.49174C69.0314 6.11965 69.8657 4.11318 71.5387 2.47011C73.2116 0.82264 75.2604 0.00110233 77.6783 0.00110233V0ZM77.5361 4.78384C76.5476 4.78384 75.7056 5.14834 75.0091 5.87296C74.3126 6.59759 73.9643 7.47529 73.9643 8.49946C73.9643 9.52362 74.3126 10.4013 75.0135 11.1259C75.7144 11.8506 76.5564 12.2151 77.5361 12.2151C78.5324 12.2151 79.3788 11.855 80.0709 11.1303C80.763 10.4101 81.1079 9.53133 81.1079 8.49946C81.1079 7.46758 80.7641 6.58878 80.0709 5.86857C79.3788 5.14394 78.5324 4.78384 77.5361 4.78384ZM87.9727 16.5848V4.91378C87.9727 3.46894 88.4102 2.2917 89.2886 1.37215C90.1669 0.458116 91.3054 0 92.7072 0C94.368 0 95.6431 0.760971 96.5391 2.27849C97.0857 1.45696 97.6731 0.874396 98.2969 0.526401C98.9251 0.174001 99.6943 0 100.613 0C102.071 0 103.189 0.457015 103.967 1.37215C104.741 2.2906 105.13 3.6066 105.13 5.33005V16.5848H100.318V6.05028C100.318 5.5404 100.277 5.2001 100.192 5.03491C100.108 4.86862 99.9368 4.78384 99.6778 4.78384C99.1962 4.78384 98.957 5.18028 98.957 5.96987V16.5848H94.1454V6.05028C94.1454 5.54811 94.1013 5.20891 94.0154 5.03822C93.9261 4.86863 93.7564 4.78384 93.5007 4.78384C93.0224 4.78384 92.7832 5.20452 92.7832 6.05028V16.5848H87.9716H87.9727ZM113.317 10.9883V6.73856C114.289 6.73856 114.775 6.37073 114.775 5.62959C114.775 4.95342 114.403 4.61424 113.653 4.61424C112.896 4.61424 112.515 5.08007 112.515 6.00622V16.5848H107.703V6.50399C107.703 5.46001 107.808 4.60653 108.019 3.93807C108.227 3.27071 108.586 2.65072 109.093 2.07256C109.664 1.43273 110.377 0.927248 111.231 0.55943C112.085 0.187208 112.969 0.00110233 113.876 0.00110233C115.524 0.00110233 116.91 0.555025 118.027 1.66068C119.149 2.76523 119.708 4.1374 119.708 5.77276C119.708 7.36296 119.205 8.65032 118.201 9.63704C117.286 10.5478 115.901 11.0004 114.054 11.0004L113.317 10.9883ZM129.375 0.00110233C131.668 0.00110233 133.636 0.834744 135.276 2.50204C136.916 4.17374 137.738 6.1681 137.738 8.49174C137.738 10.8594 136.911 12.867 135.259 14.5178C133.607 16.173 131.598 16.9989 129.233 16.9989C126.885 16.9989 124.88 16.1697 123.219 14.5101C121.558 12.8472 120.728 10.844 120.728 8.49284C120.728 6.12075 121.563 4.11428 123.236 2.47121C124.909 0.823742 126.957 0.00220465 129.375 0.00220465V0.00110233ZM129.233 4.78494C128.245 4.78494 127.403 5.14944 126.706 5.87407C126.01 6.59869 125.661 7.4764 125.661 8.50056C125.661 9.52472 126.01 10.4024 126.71 11.127C127.411 11.8517 128.253 12.2162 129.233 12.2162C130.229 12.2162 131.076 11.8561 131.768 11.1314C132.46 10.4112 132.805 9.53243 132.805 8.50056C132.805 7.46869 132.461 6.58989 131.768 5.86967C131.076 5.14505 130.229 4.78494 129.233 4.78494ZM147.616 0.317161V4.93911C147.267 4.83779 146.996 4.78494 146.81 4.78494C146.445 4.78494 146.13 4.91818 145.87 5.19019C145.607 5.4578 145.478 5.78047 145.478 6.1615C145.478 6.48527 145.62 6.89383 145.907 7.39159L146.276 8.03142C146.943 9.18443 147.276 10.2978 147.276 11.3737C147.276 12.9441 146.717 14.2755 145.596 15.3646C144.474 16.4527 143.105 17 141.489 17C140.711 17 139.946 16.8183 139.185 16.4582V11.7713C139.642 12.0664 140.051 12.2162 140.408 12.2162C140.829 12.2162 141.177 12.095 141.462 11.8561C141.74 11.6138 141.883 11.3098 141.883 10.9453C141.883 10.7108 141.66 10.1921 141.21 9.39477C140.494 8.12833 140.134 6.86519 140.134 5.59875C140.134 4.07352 140.676 2.75754 141.766 1.65739C142.851 0.552833 144.151 0.00220465 145.662 0.00220465C146.326 0.00220465 146.978 0.106823 147.618 0.318263L147.616 0.317161ZM158.685 6.70331V10.2967H155.554C155.128 10.2967 154.825 10.3617 154.651 10.4872C154.473 10.6172 154.383 10.8308 154.383 11.1347C154.383 11.4794 154.473 11.7019 154.655 11.8109C154.836 11.9199 155.206 11.9728 155.764 11.9728H159V16.5859H155.221C153.439 16.5859 152.075 16.1609 151.13 15.3151C150.187 14.4649 149.716 13.2392 149.716 11.6358V5.29041C149.716 3.73655 150.161 2.53068 151.053 1.67281C151.948 0.819337 153.2 0.389847 154.82 0.389847H158.999V5.05143H155.929C155.106 5.05143 154.698 5.32234 154.698 5.86085C154.698 6.17691 154.795 6.39497 154.99 6.5161C155.188 6.64165 155.536 6.70221 156.034 6.70221H158.683L158.685 6.70331Z" fill="#FEFEFE"/>
</svg>
