<svg width="205" height="37" viewBox="0 0 205 37" fill="none" xmlns="http://www.w3.org/2000/svg">
<g clip-path="url(#clip0_47_99857)">
<path fill-rule="evenodd" clip-rule="evenodd" d="M18.5 0C28.7173 0 37 8.28269 37 18.5C37 28.7173 28.7173 37 18.5 37C8.28269 37 0 28.7173 0 18.5C0 8.28269 8.28269 0 18.5 0Z" fill="white"/>
<path fill-rule="evenodd" clip-rule="evenodd" d="M12.8768 12H13.8843L16.0429 14.4193C15.5439 14.4823 15.061 14.7071 14.6779 15.0938C13.7624 16.0178 13.7624 17.5159 14.6779 18.4399C15.5344 19.3043 17.6809 19.7748 17.6809 17.8709C17.6809 17.5398 18.0476 16.6845 18.5 16.6845C18.9524 16.6845 19.3191 17.5397 19.3191 17.8709C19.3191 19.7748 21.4657 19.3043 22.3221 18.4399C23.2377 17.5159 23.2376 16.0178 22.3221 15.0938C21.9389 14.7071 21.456 14.4823 20.957 14.4193L23.1156 12H24.1231L27 14.9036V22.0964L24.1231 25H20.3993C20.1751 23.9355 20.8443 24.0566 20.8443 22.8787C20.8443 21.5719 19.7948 20.5127 18.5 20.5127C17.2052 20.5127 16.1557 21.572 16.1557 22.8787C16.1557 24.0566 16.8249 23.9355 16.6007 25H12.877L10 22.0964V14.9036L12.877 12H12.8768Z" fill="#5A3E92"/>
</g>
<path d="M63.1559 10.3887V22.0521C63.1559 23.5134 62.7184 24.6984 61.84 25.6179C60.9617 26.5364 59.8277 26.9978 58.4336 26.9978C56.7573 26.9978 55.4767 26.2324 54.5906 24.6995C54.044 25.5254 53.4566 26.1157 52.8328 26.4681C52.2047 26.8205 51.4354 26.9978 50.5163 26.9978C49.0582 26.9978 47.9407 26.5364 47.1627 25.6179C46.389 24.6995 46 23.3758 46 21.6523V10.3898H50.8116V20.9277C50.8116 21.4541 50.8524 21.7977 50.9373 21.964C51.0221 22.1303 51.193 22.2151 51.4519 22.2151C51.9335 22.2151 52.1727 21.8142 52.1727 21.0092V10.3898H56.9843V20.9277C56.9843 21.4376 57.0284 21.7779 57.1144 21.9519C57.2036 22.1259 57.3734 22.2151 57.629 22.2151C58.1073 22.2151 58.3454 21.7856 58.3454 20.9277V10.3898H63.157L63.1559 10.3887ZM74.6979 16.7022V20.2956H71.5669C71.1415 20.2956 70.8384 20.3606 70.6643 20.4861C70.4858 20.616 70.3965 20.8297 70.3965 21.1336C70.3965 21.4783 70.4858 21.7008 70.6676 21.8098C70.8495 21.9188 71.2187 21.9717 71.7774 21.9717H75.0131V26.5848H71.2341C69.452 26.5848 68.0877 26.1598 67.1432 25.314C66.1998 24.4638 65.7292 23.2381 65.7292 21.6347V15.2893C65.7292 13.7354 66.1745 12.5296 67.0661 11.6717C67.9609 10.8182 69.2129 10.3887 70.8329 10.3887H75.012V15.0503H71.9416C71.1195 15.0503 70.7106 15.3212 70.7106 15.8597C70.7106 16.1758 70.8076 16.3939 71.0027 16.515C71.201 16.6405 71.5493 16.7011 72.0474 16.7011H74.6957L74.6979 16.7022ZM77.7837 10.3887H83.6566C87.1436 10.3887 88.8892 11.7609 88.8892 14.5085C88.8892 15.8686 88.2941 16.9973 87.0995 17.8993C88.8286 18.6525 89.6916 19.9916 89.6916 21.9221C89.6916 23.3989 89.1813 24.5806 88.1608 25.4594C87.6671 25.8756 87.1325 26.1675 86.5606 26.3338C85.9941 26.5 85.2282 26.5848 84.2639 26.5848H83.348V22.4331H84.1658C84.6518 22.4331 84.9923 22.3725 85.1907 22.247C85.3891 22.1259 85.4861 21.9067 85.4861 21.5951C85.4861 21.0687 85.0805 20.8055 84.2749 20.8055H83.3469V16.4919C84.2385 16.4919 84.6838 16.1846 84.6838 15.5778C84.6838 15.0151 84.2826 14.7365 83.477 14.7365H82.5942V26.5859H77.7826V10.3898L77.7837 10.3887ZM108.677 18.6723L113.723 18.8023C113.392 21.4167 112.483 23.4364 111.01 24.8603C109.532 26.2853 107.608 26.9967 105.235 26.9967C102.822 26.9967 100.8 26.1873 99.1727 24.5728C97.5493 22.954 96.7349 20.9464 96.7349 18.5512C96.7349 16.1395 97.5647 14.1121 99.2211 12.469C100.882 10.8215 102.923 10 105.353 10C107.742 10 109.739 10.805 111.335 12.4162C112.445 13.5295 113.231 15.0834 113.688 17.07L108.524 17.418C107.944 15.6615 106.847 14.7838 105.227 14.7838C104.195 14.7838 103.344 15.1395 102.672 15.8487C102.004 16.5612 101.668 17.4632 101.668 18.56C101.668 19.6161 101.996 20.4905 102.656 21.1788C103.316 21.8704 104.146 22.2151 105.155 22.2151C106.18 22.2151 106.993 21.9111 107.601 21.2999C108.209 20.6887 108.569 19.8143 108.679 18.6734L108.677 18.6723ZM123.678 10C125.971 10 127.939 10.8336 129.579 12.5009C131.219 14.1726 132.041 16.167 132.041 18.4906C132.041 20.8583 131.214 22.8659 129.562 24.5167C127.91 26.1719 125.901 26.9978 123.536 26.9978C121.188 26.9978 119.183 26.1686 117.522 24.509C115.861 22.8461 115.031 20.8429 115.031 18.4917C115.031 16.1196 115.866 14.1132 117.539 12.4701C119.212 10.8226 121.26 10.0011 123.678 10.0011V10ZM123.536 14.7838C122.548 14.7838 121.706 15.1483 121.009 15.873C120.313 16.5976 119.964 17.4753 119.964 18.4995C119.964 19.5236 120.313 20.4013 121.013 21.1259C121.714 21.8506 122.556 22.2151 123.536 22.2151C124.532 22.2151 125.379 21.855 126.071 21.1303C126.763 20.4101 127.108 19.5313 127.108 18.4995C127.108 17.4676 126.764 16.5888 126.071 15.8686C125.379 15.1439 124.532 14.7838 123.536 14.7838ZM133.973 26.5848V14.9138C133.973 13.4689 134.41 12.2917 135.289 11.3722C136.167 10.4581 137.305 10 138.707 10C140.368 10 141.643 10.761 142.539 12.2785C143.086 11.457 143.673 10.8744 144.297 10.5264C144.925 10.174 145.694 10 146.613 10C148.071 10 149.189 10.457 149.967 11.3722C150.741 12.2906 151.13 13.6066 151.13 15.3301V26.5848H146.318V16.0503C146.318 15.5404 146.277 15.2001 146.192 15.0349C146.108 14.8686 145.937 14.7838 145.678 14.7838C145.196 14.7838 144.957 15.1803 144.957 15.9699V26.5848H140.145V16.0503C140.145 15.5481 140.101 15.2089 140.015 15.0382C139.926 14.8686 139.756 14.7838 139.501 14.7838C139.022 14.7838 138.783 15.2045 138.783 16.0503V26.5848H133.972H133.973ZM159.317 20.9883V16.7386C160.289 16.7386 160.775 16.3707 160.775 15.6296C160.775 14.9534 160.403 14.6142 159.653 14.6142C158.896 14.6142 158.515 15.0801 158.515 16.0062V26.5848H153.703V16.504C153.703 15.46 153.808 14.6065 154.019 13.9381C154.227 13.2707 154.586 12.6507 155.093 12.0726C155.664 11.4327 156.377 10.9272 157.231 10.5594C158.085 10.1872 158.969 10.0011 159.876 10.0011C161.524 10.0011 162.91 10.555 164.027 11.6607C165.149 12.7652 165.708 14.1374 165.708 15.7728C165.708 17.363 165.205 18.6503 164.201 19.637C163.286 20.5478 161.901 21.0004 160.054 21.0004L159.317 20.9883ZM175.375 10.0011C177.668 10.0011 179.636 10.8347 181.276 12.502C182.916 14.1737 183.738 16.1681 183.738 18.4917C183.738 20.8594 182.911 22.867 181.259 24.5178C179.607 26.173 177.598 26.9989 175.233 26.9989C172.885 26.9989 170.88 26.1697 169.219 24.5101C167.558 22.8472 166.728 20.844 166.728 18.4928C166.728 16.1207 167.563 14.1143 169.236 12.4712C170.909 10.8237 172.957 10.0022 175.375 10.0022V10.0011ZM175.233 14.7849C174.245 14.7849 173.403 15.1494 172.706 15.8741C172.01 16.5987 171.661 17.4764 171.661 18.5006C171.661 19.5247 172.01 20.4024 172.71 21.127C173.411 21.8517 174.253 22.2162 175.233 22.2162C176.229 22.2162 177.076 21.8561 177.768 21.1314C178.46 20.4112 178.805 19.5324 178.805 18.5006C178.805 17.4687 178.461 16.5899 177.768 15.8697C177.076 15.145 176.229 14.7849 175.233 14.7849ZM193.616 10.3172V14.9391C193.267 14.8378 192.996 14.7849 192.81 14.7849C192.445 14.7849 192.13 14.9182 191.87 15.1902C191.607 15.4578 191.478 15.7805 191.478 16.1615C191.478 16.4853 191.62 16.8938 191.907 17.3916L192.276 18.0314C192.943 19.1844 193.276 20.2978 193.276 21.3737C193.276 22.9441 192.717 24.2755 191.596 25.3646C190.474 26.4527 189.105 27 187.489 27C186.711 27 185.946 26.8183 185.185 26.4582V21.7713C185.642 22.0664 186.051 22.2162 186.408 22.2162C186.829 22.2162 187.177 22.095 187.462 21.8561C187.74 21.6138 187.883 21.3098 187.883 20.9453C187.883 20.7108 187.66 20.1921 187.21 19.3948C186.494 18.1283 186.134 16.8652 186.134 15.5988C186.134 14.0735 186.676 12.7575 187.766 11.6574C188.851 10.5528 190.151 10.0022 191.662 10.0022C192.326 10.0022 192.978 10.1068 193.618 10.3183L193.616 10.3172ZM204.685 16.7033V20.2967H201.554C201.128 20.2967 200.825 20.3617 200.651 20.4872C200.473 20.6172 200.383 20.8308 200.383 21.1347C200.383 21.4794 200.473 21.7019 200.655 21.8109C200.836 21.9199 201.206 21.9728 201.764 21.9728H205V26.5859H201.221C199.439 26.5859 198.075 26.1609 197.13 25.3151C196.187 24.4649 195.716 23.2392 195.716 21.6358V15.2904C195.716 13.7365 196.161 12.5307 197.053 11.6728C197.948 10.8193 199.2 10.3898 200.82 10.3898H204.999V15.0514H201.929C201.106 15.0514 200.698 15.3223 200.698 15.8609C200.698 16.1769 200.795 16.395 200.99 16.5161C201.188 16.6416 201.536 16.7022 202.034 16.7022H204.683L204.685 16.7033Z" fill="#FEFEFE"/>
<defs>
<clipPath id="clip0_47_99857">
<rect width="37" height="37" fill="white"/>
</clipPath>
</defs>
</svg>
