<svg width="22" height="22" viewBox="0 0 22 22" fill="none" xmlns="http://www.w3.org/2000/svg">
<path d="M9.49952 12.5001L19.9995 2.00005M9.6271 12.8281L12.2552 19.5861C12.4867 20.1815 12.6025 20.4791 12.7693 20.566C12.9139 20.6414 13.0862 20.6415 13.2308 20.5663C13.3977 20.4796 13.5139 20.1821 13.7461 19.587L20.3364 2.69925C20.5461 2.16207 20.6509 1.89348 20.5935 1.72185C20.5437 1.5728 20.4268 1.45583 20.2777 1.40604C20.1061 1.34871 19.8375 1.45352 19.3003 1.66315L2.41258 8.25349C1.8175 8.48572 1.51997 8.60183 1.43326 8.76873C1.35809 8.91342 1.35819 9.08567 1.43353 9.23027C1.52043 9.39707 1.81811 9.51283 2.41345 9.74436L9.17146 12.3725C9.29231 12.4195 9.35273 12.443 9.40361 12.4793C9.44871 12.5114 9.48815 12.5509 9.52031 12.596C9.55661 12.6468 9.58011 12.7073 9.6271 12.8281Z" stroke="#7F56D9" stroke-width="2" stroke-linecap="round" stroke-linejoin="round"/>
</svg>
