<?xml version="1.0" encoding="UTF-8"?><svg id="Layer_1" xmlns="http://www.w3.org/2000/svg" viewBox="0 0 119.25 12.75"><defs><style>.cls-1{fill:#5a3e92;}</style></defs><path class="cls-1" d="m12.87.29v8.75c0,1.1-.33,1.99-.99,2.67-.66.69-1.51,1.03-2.55,1.03-1.26,0-2.22-.57-2.88-1.72-.41.62-.85,1.06-1.32,1.33-.47.26-1.05.4-1.74.4-1.09,0-1.93-.35-2.51-1.03-.58-.69-.87-1.68-.87-2.97V.29h3.61v7.9c0,.39.03.65.09.78.06.12.19.19.39.19.36,0,.54-.3.54-.9V.29h3.61v7.9c0,.38.03.64.1.77.07.13.19.2.39.2.36,0,.54-.32.54-.97V.29h3.61,0Zm8.66,4.73v2.69h-2.35c-.32,0-.55.05-.68.14-.13.1-.2.26-.2.49,0,.26.07.43.2.51.14.08.41.12.83.12h2.43v3.46h-2.83c-1.34,0-2.36-.32-3.07-.95-.71-.64-1.06-1.56-1.06-2.76V3.96c0-1.17.33-2.07,1-2.71.67-.64,1.61-.96,2.83-.96h3.13v3.5h-2.3c-.62,0-.92.2-.92.61,0,.24.07.4.22.49.15.09.41.14.78.14h1.99s0,0,0,0ZM23.84.29h4.4c2.61,0,3.92,1.03,3.92,3.09,0,1.02-.45,1.87-1.34,2.54,1.3.57,1.94,1.57,1.94,3.02,0,1.11-.38,1.99-1.15,2.65-.37.31-.77.53-1.2.66-.42.12-1,.19-1.72.19h-.69v-3.11h.61c.36,0,.62-.05.77-.14.15-.09.22-.25.22-.49,0-.39-.3-.59-.91-.59h-.7v-3.23c.67,0,1-.23,1-.69,0-.42-.3-.63-.91-.63h-.66v8.89h-3.61V.29h0s0,0,0,0Zm23.17,6.21l3.78.1c-.25,1.96-.93,3.48-2.03,4.54-1.11,1.07-2.55,1.6-4.33,1.6s-3.33-.61-4.55-1.82c-1.22-1.21-1.83-2.72-1.83-4.52s.62-3.33,1.86-4.56C41.16.62,42.69,0,44.51,0s3.29.6,4.49,1.81c.83.84,1.42,2,1.76,3.49l-3.87.26c-.43-1.32-1.26-1.98-2.47-1.98-.77,0-1.41.27-1.92.8-.5.53-.75,1.21-.75,2.03s.25,1.45.74,1.96c.5.52,1.12.78,1.87.78s1.38-.23,1.83-.69c.46-.46.73-1.11.81-1.97h0s0,0,0,0ZM58.26,0C59.98,0,61.45.63,62.68,1.88c1.23,1.25,1.85,2.75,1.85,4.49s-.62,3.28-1.86,4.52c-1.24,1.24-2.75,1.86-4.52,1.86s-3.27-.62-4.51-1.87c-1.25-1.25-1.87-2.75-1.87-4.51s.63-3.28,1.88-4.52C54.91.62,56.44,0,58.26,0,58.26,0,58.26,0,58.26,0Zm-.11,3.59c-.74,0-1.37.27-1.9.82-.52.54-.78,1.2-.78,1.97s.26,1.43.79,1.97,1.16.82,1.89.82,1.38-.27,1.9-.81c.52-.54.78-1.2.78-1.97s-.26-1.43-.78-1.97c-.52-.54-1.15-.81-1.9-.81Zm7.83,8.85V3.69c0-1.08.33-1.97.99-2.66C67.62.34,68.48,0,69.53,0,70.77,0,71.73.57,72.4,1.71c.41-.62.85-1.05,1.32-1.31.47-.26,1.05-.39,1.74-.39,1.09,0,1.93.34,2.52,1.03.58.69.87,1.68.87,2.97v8.44h-3.61v-7.9c0-.38-.03-.64-.09-.76-.06-.12-.19-.19-.39-.19-.36,0-.54.3-.54.89v7.96h-3.61v-7.9c0-.38-.03-.63-.1-.76-.07-.13-.19-.19-.39-.19-.36,0-.54.32-.54.95v7.9h-3.61,0Zm19.01-4.2v-3.19c.73,0,1.09-.28,1.09-.83,0-.51-.28-.76-.84-.76s-.85.35-.85,1.04v7.93h-3.61v-7.56c0-.78.08-1.42.24-1.92.16-.5.43-.97.81-1.4.43-.48.96-.86,1.6-1.13.64-.28,1.3-.42,1.98-.42,1.24,0,2.28.42,3.11,1.24.84.83,1.26,1.86,1.26,3.08s-.38,2.16-1.13,2.9c-.69.68-1.73,1.02-3.11,1.02h-.55s0,0,0,0ZM97.03,0c1.72,0,3.2.63,4.43,1.88,1.23,1.25,1.85,2.75,1.85,4.49s-.62,3.28-1.86,4.52c-1.24,1.24-2.75,1.86-4.52,1.86s-3.26-.62-4.51-1.87c-1.25-1.25-1.87-2.75-1.87-4.51s.63-3.28,1.88-4.52C93.68.62,95.22,0,97.03,0h0s0,0,0,0Zm-.11,3.59c-.74,0-1.37.27-1.9.82-.52.54-.78,1.2-.78,1.97s.26,1.43.79,1.97c.53.54,1.16.82,1.89.82s1.38-.27,1.9-.81c.52-.54.78-1.2.78-1.97s-.26-1.43-.78-1.97c-.52-.54-1.15-.81-1.9-.81h0ZM110.71.24v3.47c-.26-.08-.47-.12-.6-.12-.27,0-.51.1-.7.3-.2.2-.29.44-.29.73,0,.24.11.55.32.92l.28.48c.5.86.75,1.7.75,2.51,0,1.18-.42,2.18-1.26,2.99-.84.82-1.87,1.23-3.08,1.23-.58,0-1.16-.14-1.73-.41v-3.51c.34.22.65.33.92.33.32,0,.58-.09.79-.27.21-.18.32-.41.32-.68,0-.18-.17-.57-.5-1.16-.54-.95-.81-1.9-.81-2.85,0-1.14.41-2.13,1.22-2.96C107.14.41,108.11,0,109.24,0c.5,0,.99.08,1.47.24h0s0,0,0,0Zm8.3,4.79v2.69h-2.35c-.32,0-.55.05-.68.14-.13.1-.2.26-.2.49,0,.26.07.43.2.51.14.08.41.12.83.12h2.43v3.46h-2.83c-1.34,0-2.36-.32-3.07-.95-.71-.64-1.06-1.56-1.06-2.76V3.97c0-1.17.33-2.07,1-2.71.67-.64,1.61-.96,2.83-.96h3.13v3.5h-2.3c-.62,0-.92.2-.92.61,0,.24.07.4.22.49.15.09.41.14.78.14h1.99s0,0,0,0Z"/></svg>