<?xml version="1.0" encoding="UTF-8"?>
<!DOCTYPE svg PUBLIC "-//W3C//DTD SVG 1.1//EN" "http://www.w3.org/Graphics/SVG/1.1/DTD/svg11.dtd">
<!-- Creator: CorelDRAW -->
<svg xmlns="http://www.w3.org/2000/svg" xml:space="preserve" width="4in" height="4in" version="1.1" style="shape-rendering:geometricPrecision; text-rendering:geometricPrecision; image-rendering:optimizeQuality; fill-rule:evenodd; clip-rule:evenodd"
viewBox="0 0 3999.58 3999.58"
 xmlns:xlink="http://www.w3.org/1999/xlink"
 xmlns:xodm="http://www.corel.com/coreldraw/odm/2003">
 <defs>
  <style type="text/css">
   <![CDATA[
    .fil1 {fill:#FEFEFE}
    .fil0 {fill:#4F46E5}
   ]]>
  </style>
 </defs>
 <g id="Layer_x0020_1">
  <metadata id="CorelCorpID_0Corel-Layer"/>
  <path class="fil0" d="M1999.79 0c1104.45,0 1999.79,895.34 1999.79,1999.79 0,1104.46 -895.34,1999.79 -1999.79,1999.79 -1104.45,0 -1999.79,-895.34 -1999.79,-1999.79 0,-1104.46 895.34,-1999.79 1999.79,-1999.79z"/>
  <path class="fil1" d="M1082.95 949.68l164.26 0 351.96 390.85c-81.37,10.17 -160.09,46.49 -222.58,108.97 -149.27,149.27 -149.27,391.29 0,540.57 139.65,139.65 489.63,215.66 489.63,-91.92 0,-53.51 59.8,-191.67 133.55,-191.67 73.76,0 133.56,138.15 133.56,191.67 0,307.58 349.99,231.56 489.63,91.92 149.28,-149.28 149.28,-391.3 0,-540.57 -62.48,-62.48 -141.21,-98.79 -222.58,-108.97l351.97 -390.85 164.26 0 469.08 469.08 0 1162.04 -469.08 469.08 -607.15 0c-36.56,-171.97 72.56,-152.42 72.56,-342.72 0,-211.1 -171.14,-382.24 -382.24,-382.24 -211.11,0 -382.24,171.14 -382.24,382.24 0,190.3 109.12,170.74 72.56,342.72l-607.16 0 -469.08 -469.08 0 -1162.04 469.08 -469.08z"/>
 </g>
</svg>
